<svg width="14" height="14" viewBox="0 0 14 14" fill="none" xmlns="http://www.w3.org/2000/svg">
<path fill-rule="evenodd" clip-rule="evenodd" d="M7.00002 0.533203C6.7575 0.533141 6.51494 0.670752 6.41353 0.946035L5.13599 4.41378C5.04802 4.65258 4.82793 4.81488 4.57698 4.82601L0.932866 4.98763C0.354427 5.01328 0.117382 5.75376 0.570492 6.11961L3.42505 8.42442C3.62162 8.58313 3.70569 8.84574 3.63857 9.09142L2.66392 12.659C2.50921 13.2253 3.1298 13.683 3.61263 13.3586L6.65437 11.3154C6.75915 11.245 6.87959 11.2098 7.00002 11.2098V0.533203Z" fill="#FED833"/>
<path fill-rule="evenodd" clip-rule="evenodd" d="M7.00004 0.533203C7.24256 0.533141 7.48512 0.670752 7.58654 0.946035L8.86407 4.41378C8.95205 4.65258 9.17213 4.81488 9.42308 4.82601L13.0672 4.98763C13.6456 5.01328 13.8827 5.75376 13.4296 6.11961L10.575 8.42442C10.3784 8.58313 10.2944 8.84574 10.3615 9.09142L11.3361 12.659C11.4909 13.2253 10.8703 13.683 10.3874 13.3586L7.34569 11.3154C7.24091 11.245 7.12047 11.2098 7.00004 11.2098V0.533203Z" fill="#E8E8E8"/>
</svg>
