<svg width="14" height="13" viewBox="0 0 14 13" fill="none" xmlns="http://www.w3.org/2000/svg">
<path fill-rule="evenodd" clip-rule="evenodd" d="M7.04846 11.3493C4.42323 9.60885 2.90675 7.97782 2.14265 6.5911C1.35599 5.16346 1.37752 4.02393 1.74955 3.24605C2.48659 1.70495 4.8861 1.1584 6.69491 2.9672C6.78867 3.06097 6.91585 3.11365 7.04846 3.11365C7.18107 3.11365 7.30824 3.06097 7.40201 2.96721C9.2108 1.15841 11.6103 1.70496 12.3474 3.24607C12.7194 4.02395 12.741 5.16348 11.9543 6.59112C11.1902 7.97783 9.67371 9.60886 7.04846 11.3493ZM7.04846 1.93673C4.87375 0.121592 1.88614 0.642711 0.847412 2.8146C0.302776 3.95339 0.365973 5.43885 1.26681 7.07371C2.16422 8.70235 3.90306 10.5073 6.77683 12.3668C6.94212 12.4737 7.15479 12.4737 7.32008 12.3668C10.1939 10.5073 11.9327 8.70236 12.8301 7.07372C13.731 5.43887 13.7942 3.9534 13.2495 2.81461C12.2108 0.642737 9.22317 0.121604 7.04846 1.93673Z" fill="#333333"/>
</svg>
