<svg width="14" height="14" viewBox="0 0 14 14" fill="none" xmlns="http://www.w3.org/2000/svg">
<path d="M6.41353 0.946035C6.61631 0.395592 7.3834 0.395593 7.58619 0.946036L8.86372 4.41378C8.9517 4.65258 9.17179 4.81488 9.42273 4.82601L13.0668 4.98763C13.6453 5.01328 13.8823 5.75377 13.4292 6.11961L10.5747 8.42442C10.3781 8.58313 10.294 8.84574 10.3611 9.09141L11.3358 12.659C11.4905 13.2253 10.8699 13.683 10.3871 13.3587L7.34534 11.3153C7.13588 11.1746 6.86384 11.1746 6.65437 11.3154L3.61263 13.3586C3.1298 13.683 2.50921 13.2253 2.66392 12.659L3.63857 9.09142C3.70569 8.84574 3.62162 8.58313 3.42505 8.42442L0.570492 6.11961C0.117382 5.75376 0.354427 5.01328 0.932866 4.98763L4.57698 4.82601C4.82793 4.81488 5.04802 4.65258 5.13599 4.41378L6.41353 0.946035Z" fill="#E8E8E8"/>
</svg>
